<?xml version="1.0" standalone="no"?>
<!DOCTYPE svg PUBLIC "-//W3C//DTD SVG 20010904//EN"
 "http://www.w3.org/TR/2001/REC-SVG-20010904/DTD/svg10.dtd">
<svg version="1.0" xmlns="http://www.w3.org/2000/svg"
 width="512.000000pt" height="512.000000pt" viewBox="0 0 512.000000 512.000000"
 preserveAspectRatio="xMidYMid meet">

<g transform="translate(0.000000,512.000000) scale(0.100000,-0.100000)"
fill="#000000" stroke="none">
<path d="M1608 5104 c-15 -8 -32 -23 -38 -34 -6 -12 -10 -274 -10 -764 l0
-746 -136 0 c-74 0 -144 -5 -155 -10 -24 -13 -49 -61 -49 -94 0 -14 13 -40 29
-58 l29 -33 211 0 211 0 27 28 28 27 3 750 2 750 800 0 800 0 2 -750 3 -750
28 -27 27 -28 750 -3 750 -2 0 -800 0 -800 -82 0 -83 0 -29 55 c-55 107 -163
179 -292 198 l-71 11 5 115 c3 86 0 134 -12 186 -48 200 -181 356 -357 416
-89 30 -220 24 -303 -14 -83 -38 -149 -90 -202 -157 l-46 -59 -43 58 c-89 121
-226 191 -378 191 -222 0 -427 -184 -483 -436 -12 -56 -15 -106 -12 -188 l4
-113 -72 -10 c-303 -44 -439 -386 -276 -697 44 -83 137 -180 212 -220 30 -16
57 -30 59 -32 2 -2 -6 -15 -17 -31 -161 -228 -146 -569 35 -791 l34 -42 -375
0 -376 0 -2 750 -3 750 -28 27 -27 28 -750 3 -750 2 0 799 0 799 131 4 131 3
29 33 c16 18 29 44 29 58 0 33 -25 81 -49 94 -26 13 -396 13 -422 0 -50 -27
-49 0 -49 -990 0 -990 -1 -963 49 -990 13 -7 273 -10 765 -10 l746 0 0 -746
c0 -492 3 -752 10 -765 27 -50 18 -49 777 -49 813 0 785 -2 959 85 67 33 124
55 144 55 20 0 77 -22 144 -55 137 -69 225 -89 351 -82 274 16 500 187 592
449 64 181 30 427 -79 581 -16 22 -19 32 -9 35 37 12 163 108 197 148 58 71
111 186 126 271 l12 73 134 0 c73 0 142 5 153 10 50 27 49 0 49 990 0 990 1
963 -49 990 -13 7 -273 10 -765 10 l-746 0 0 746 c0 492 -3 752 -10 765 -28
50 0 49 -992 49 -795 -1 -927 -3 -950 -16z m1528 -2568 c67 -31 120 -87 156
-163 124 -262 -21 -585 -261 -585 -79 0 -136 28 -200 98 -76 83 -95 143 -96
289 0 114 2 123 31 186 81 171 228 241 370 175z m841 -2 c66 -32 117 -89 156
-171 24 -54 31 -82 35 -159 7 -142 -28 -246 -111 -331 -179 -184 -449 -57
-490 232 -18 126 14 252 90 352 73 96 215 130 320 77z m-1360 -746 c132 -66
214 -257 174 -406 -14 -51 -64 -110 -108 -128 -111 -47 -257 32 -329 176 -41
82 -46 197 -11 272 50 111 157 144 274 86z m1874 -3 c24 -15 47 -44 64 -79 89
-183 -70 -465 -263 -466 -57 0 -101 20 -139 63 -42 49 -56 99 -51 188 8 151
100 275 238 320 40 13 111 1 151 -26z m-902 -124 c153 -48 256 -158 310 -331
38 -120 97 -190 212 -251 35 -18 90 -59 122 -91 159 -158 182 -398 55 -588
-48 -72 -131 -138 -216 -171 -46 -19 -77 -23 -162 -23 -114 0 -158 12 -256 72
-133 82 -275 80 -414 -3 -247 -148 -547 -63 -667 190 -32 68 -37 88 -41 173
-3 81 -1 108 18 162 42 125 119 215 240 279 120 64 170 126 215 266 41 126
106 211 208 274 99 61 259 79 376 42z"/>
<path d="M817 3549 c-22 -13 -47 -61 -47 -93 0 -14 13 -40 29 -58 24 -27 36
-33 71 -33 35 0 47 6 71 33 16 18 29 44 29 58 0 33 -25 81 -49 94 -25 13 -81
12 -104 -1z"/>
</g>
</svg>
